HIERARCHY
ROOT mixamorig:Hips
{
	OFFSET 0.000000 201.639420 0.000000
	CHANNELS 6 Xposition Yposition Zposition Xrotation Yrotation Zrotation
	JOINT mixamorig:Spine
	{
		OFFSET 0.006200 19.524994 -2.481800
		CHANNELS 3 Xrotation Yrotation Zrotation
		JOINT mixamorig:Spine1
		{
			OFFSET -0.000900 22.835007 -2.825400
			CHANNELS 3 Xrotation Yrotation Zrotation
			JOINT mixamorig:Spine2
			{
				OFFSET -0.020600 26.552490 -3.193300
				CHANNELS 3 Xrotation Yrotation Zrotation
				JOINT mixamorig:Neck
				{
					OFFSET -0.060000 30.701813 1.352200
					CHANNELS 3 Xrotation Yrotation Zrotation
					JOINT mixamorig:Head
					{
						OFFSET -0.087200 22.547607 3.670900
						CHANNELS 3 Xrotation Yrotation Zrotation
						JOINT mixamorig:HeadTop_End
						{
							OFFSET -0.830600 40.355194 7.893500
							CHANNELS 3 Xrotation Yrotation Zrotation
							End Site
							{
								OFFSET 0.000000 30.592346 0.000000
							}
						}
						JOINT mixamorig:RightEye
						{
							OFFSET -6.302100 18.118591 16.197100
							CHANNELS 3 Xrotation Yrotation Zrotation
							End Site
							{
								OFFSET 0.000000 30.592346 0.000000
							}
						}
						JOINT mixamorig:LeftEye
						{
							OFFSET 6.741500 18.382690 16.401899
							CHANNELS 3 Xrotation Yrotation Zrotation
							End Site
							{
								OFFSET 0.000000 30.592346 0.000000
							}
						}
					}
				}
				JOINT mixamorig:LeftShoulder
				{
					OFFSET 11.924900 18.230499 1.425400
					CHANNELS 3 Xrotation Yrotation Zrotation
					JOINT mixamorig:LeftArm
					{
						OFFSET 25.435989 -0.697632 -5.229300
						CHANNELS 3 Xrotation Yrotation Zrotation
						JOINT mixamorig:LeftForeArm
						{
							OFFSET 54.684776 0.000000 0.000000
							CHANNELS 3 Xrotation Yrotation Zrotation
							JOINT mixamorig:LeftHand
							{
								OFFSET 55.098175 0.000000 0.000000
								CHANNELS 3 Xrotation Yrotation Zrotation
								JOINT mixamorig:LeftHandMiddle1
								{
									OFFSET 23.369751 0.000000 0.000000
									CHANNELS 3 Xrotation Yrotation Zrotation
									JOINT mixamorig:LeftHandMiddle2
									{
										OFFSET 6.378677 0.000000 0.000000
										CHANNELS 3 Xrotation Yrotation Zrotation
										JOINT mixamorig:LeftHandMiddle3
										{
											OFFSET 6.148331 0.000000 0.000000
											CHANNELS 3 Xrotation Yrotation Zrotation
											JOINT mixamorig:LeftHandMiddle4
											{
												OFFSET 6.582504 0.000000 0.000000
												CHANNELS 3 Xrotation Yrotation Zrotation
												End Site
												{
													OFFSET -1.168900 6.395691 1.028606
												}
											}
										}
									}
								}
								JOINT mixamorig:LeftHandThumb1
								{
									OFFSET 7.235672 -3.848206 5.434273
									CHANNELS 3 Xrotation Yrotation Zrotation
									JOINT mixamorig:LeftHandThumb2
									{
										OFFSET 6.568451 -3.792297 3.792300
										CHANNELS 3 Xrotation Yrotation Zrotation
										JOINT mixamorig:LeftHandThumb3
										{
											OFFSET 6.063080 -3.500519 3.500518
											CHANNELS 3 Xrotation Yrotation Zrotation
											JOINT mixamorig:LeftHandThumb4
											{
												OFFSET 4.793182 -2.767334 2.767349
												CHANNELS 3 Xrotation Yrotation Zrotation
												End Site
												{
													OFFSET 0.101639 6.054260 1.275483
												}
											}
										}
									}
								}
								JOINT mixamorig:LeftHandIndex1
								{
									OFFSET 23.101074 -0.309540 4.992809
									CHANNELS 3 Xrotation Yrotation Zrotation
									JOINT mixamorig:LeftHandIndex2
									{
										OFFSET 6.226883 0.000000 0.000000
										CHANNELS 3 Xrotation Yrotation Zrotation
										JOINT mixamorig:LeftHandIndex3
										{
											OFFSET 6.094330 0.000000 0.000000
											CHANNELS 3 Xrotation Yrotation Zrotation
											JOINT mixamorig:LeftHandIndex4
											{
												OFFSET 5.482605 0.000000 0.000000
												CHANNELS 3 Xrotation Yrotation Zrotation
												End Site
												{
													OFFSET -1.427902 5.233032 0.797164
												}
											}
										}
									}
								}
								JOINT mixamorig:LeftHandRing1
								{
									OFFSET 22.299240 0.021149 -3.964172
									CHANNELS 3 Xrotation Yrotation Zrotation
									JOINT mixamorig:LeftHandRing2
									{
										OFFSET 6.321869 0.000000 0.000000
										CHANNELS 3 Xrotation Yrotation Zrotation
										JOINT mixamorig:LeftHandRing3
										{
											OFFSET 5.899796 0.000000 0.000000
											CHANNELS 3 Xrotation Yrotation Zrotation
											JOINT mixamorig:LeftHandRing4
											{
												OFFSET 6.517899 0.000000 0.000000
												CHANNELS 3 Xrotation Yrotation Zrotation
												End Site
												{
													OFFSET -1.637299 6.232208 0.980890
												}
											}
										}
									}
								}
								JOINT mixamorig:LeftHandPinky1
								{
									OFFSET 20.463791 -0.302338 -8.562233
									CHANNELS 3 Xrotation Yrotation Zrotation
									JOINT mixamorig:LeftHandPinky2
									{
										OFFSET 6.908646 0.000000 0.000000
										CHANNELS 3 Xrotation Yrotation Zrotation
										JOINT mixamorig:LeftHandPinky3
										{
											OFFSET 4.622849 0.000000 0.000000
											CHANNELS 3 Xrotation Yrotation Zrotation
											JOINT mixamorig:LeftHandPinky4
											{
												OFFSET 5.216080 0.000000 0.000000
												CHANNELS 3 Xrotation Yrotation Zrotation
												End Site
												{
													OFFSET -0.606308 5.116241 0.814926
												}
											}
										}
									}
								}
							}
						}
					}
				}
				JOINT mixamorig:RightShoulder
				{
					OFFSET -12.001300 18.284088 1.348900
					CHANNELS 3 Xrotation Yrotation Zrotation
					JOINT mixamorig:RightArm
					{
						OFFSET -25.308500 -0.751312 -5.164599
						CHANNELS 3 Xrotation Yrotation Zrotation
						JOINT mixamorig:RightForeArm
						{
							OFFSET -54.684429 0.000000 0.000000
							CHANNELS 3 Xrotation Yrotation Zrotation
							JOINT mixamorig:RightHand
							{
								OFFSET -55.150291 0.000000 0.000000
								CHANNELS 3 Xrotation Yrotation Zrotation
								JOINT mixamorig:RightHandMiddle1
								{
									OFFSET -23.317566 0.000000 0.000000
									CHANNELS 3 Xrotation Yrotation Zrotation
									JOINT mixamorig:RightHandMiddle2
									{
										OFFSET -6.378403 0.000000 0.000000
										CHANNELS 3 Xrotation Yrotation Zrotation
										JOINT mixamorig:RightHandMiddle3
										{
											OFFSET -6.148193 0.000000 0.000000
											CHANNELS 3 Xrotation Yrotation Zrotation
											JOINT mixamorig:RightHandMiddle4
											{
												OFFSET -6.583389 0.000000 0.000000
												CHANNELS 3 Xrotation Yrotation Zrotation
												End Site
												{
													OFFSET 1.171692 6.395905 1.029786
												}
											}
										}
									}
								}
								JOINT mixamorig:RightHandThumb1
								{
									OFFSET -7.190521 -3.860474 5.435846
									CHANNELS 3 Xrotation Yrotation Zrotation
									JOINT mixamorig:RightHandThumb2
									{
										OFFSET -6.567429 -3.791718 3.791708
										CHANNELS 3 Xrotation Yrotation Zrotation
										JOINT mixamorig:RightHandThumb3
										{
											OFFSET -6.062469 -3.500153 3.500166
											CHANNELS 3 Xrotation Yrotation Zrotation
											JOINT mixamorig:RightHandThumb4
											{
												OFFSET -4.792618 -2.767029 2.767022
												CHANNELS 3 Xrotation Yrotation Zrotation
												End Site
												{
													OFFSET -0.100327 6.053253 1.276754
												}
											}
										}
									}
								}
								JOINT mixamorig:RightHandIndex1
								{
									OFFSET -23.048981 -0.310791 4.992554
									CHANNELS 3 Xrotation Yrotation Zrotation
									JOINT mixamorig:RightHandIndex2
									{
										OFFSET -6.227539 0.000000 0.000000
										CHANNELS 3 Xrotation Yrotation Zrotation
										JOINT mixamorig:RightHandIndex3
										{
											OFFSET -6.095047 0.000000 0.000000
											CHANNELS 3 Xrotation Yrotation Zrotation
											JOINT mixamorig:RightHandIndex4
											{
												OFFSET -5.484772 0.000000 0.000000
												CHANNELS 3 Xrotation Yrotation Zrotation
												End Site
												{
													OFFSET 1.420593 5.237305 0.797056
												}
											}
										}
									}
								}
								JOINT mixamorig:RightHandRing1
								{
									OFFSET -22.246323 0.020569 -3.963762
									CHANNELS 3 Xrotation Yrotation Zrotation
									JOINT mixamorig:RightHandRing2
									{
										OFFSET -6.322128 0.000000 0.000000
										CHANNELS 3 Xrotation Yrotation Zrotation
										JOINT mixamorig:RightHandRing3
										{
											OFFSET -5.900024 0.000000 0.000000
											CHANNELS 3 Xrotation Yrotation Zrotation
											JOINT mixamorig:RightHandRing4
											{
												OFFSET -6.518356 0.000000 0.000000
												CHANNELS 3 Xrotation Yrotation Zrotation
												End Site
												{
													OFFSET 1.636398 6.232697 0.982186
												}
											}
										}
									}
								}
								JOINT mixamorig:RightHandPinky1
								{
									OFFSET -20.411011 -0.303314 -8.561701
									CHANNELS 3 Xrotation Yrotation Zrotation
									JOINT mixamorig:RightHandPinky2
									{
										OFFSET -6.907349 0.000000 0.000000
										CHANNELS 3 Xrotation Yrotation Zrotation
										JOINT mixamorig:RightHandPinky3
										{
											OFFSET -4.623840 0.000000 0.000000
											CHANNELS 3 Xrotation Yrotation Zrotation
											JOINT mixamorig:RightHandPinky4
											{
												OFFSET -5.218353 0.000000 0.000000
												CHANNELS 3 Xrotation Yrotation Zrotation
												End Site
												{
													OFFSET 0.602097 5.118835 0.816273
												}
											}
										}
									}
								}
							}
						}
					}
				}
			}
		}
	}
	JOINT mixamorig:LeftUpLeg
	{
		OFFSET 18.168400 -13.561905 -0.039000
		CHANNELS 3 Xrotation Yrotation Zrotation
		JOINT mixamorig:LeftLeg
		{
			OFFSET 0.577358 -80.825211 -3.695000
			CHANNELS 3 Xrotation Yrotation Zrotation
			JOINT mixamorig:LeftFoot
			{
				OFFSET -0.577356 -83.370262 -6.520700
				CHANNELS 3 Xrotation Yrotation Zrotation
				JOINT mixamorig:LeftToeBase
				{
					OFFSET 0.750401 -20.798306 25.135401
					CHANNELS 3 Xrotation Yrotation Zrotation
					JOINT mixamorig:LeftToe_End
					{
						OFFSET -0.000500 0.001200 19.917799
						CHANNELS 3 Xrotation Yrotation Zrotation
						End Site
						{
							OFFSET 0.000000 19.917805 0.000000
						}
					}
				}
			}
		}
	}
	JOINT mixamorig:RightUpLeg
	{
		OFFSET -18.162500 -13.585098 -0.041000
		CHANNELS 3 Xrotation Yrotation Zrotation
		JOINT mixamorig:RightLeg
		{
			OFFSET -0.595024 -80.945297 -3.631900
			CHANNELS 3 Xrotation Yrotation Zrotation
			JOINT mixamorig:RightFoot
			{
				OFFSET 0.595024 -83.218193 -6.561200
				CHANNELS 3 Xrotation Yrotation Zrotation
				JOINT mixamorig:RightToeBase
				{
					OFFSET -0.753601 -20.807106 25.115000
					CHANNELS 3 Xrotation Yrotation Zrotation
					JOINT mixamorig:RightToe_End
					{
						OFFSET 0.000299 0.001700 19.918200
						CHANNELS 3 Xrotation Yrotation Zrotation
						End Site
						{
							OFFSET 0.000000 19.918203 0.000000
						}
					}
				}
			}
		}
	}
}
MOTION
Frames: 4
Frame Time: 0.033333
-0.378910 187.024658 -0.164257 -4.702769 -3.152614 5.917110 12.183197 0.906700 -1.463595 7.772066 0.042806 -0.627616 7.772234 0.059639 -0.622085 -5.595913 2.521074 -8.175671 -18.786002 -0.163190 8.662065 0.000000 -0.000000 -0.000000 0.000000 -0.000000 -0.000000 0.000000 -0.000000 -0.000000 -5.941541 12.219047 -3.252196 30.527954 -1.707321 -28.483052 0.000022 -78.736665 -0.000023 24.778871 -10.278161 -8.509696 0.326849 2.100183 -17.690313 0.105723 1.204479 -10.033363 0.075866 1.021390 -8.495700 0.000002 -0.000000 0.000000 0.372892 12.101296 -3.080780 3.939032 7.948694 0.746813 1.374073 26.415415 4.686973 0.000002 -0.000003 0.000001 0.282638 1.956255 -16.441143 0.073699 1.006807 -8.373320 0.077981 1.035424 -8.613330 -0.000002 0.000000 -0.000000 0.556322 2.716035 -23.147349 0.110560 1.231426 -10.260324 0.076554 1.025984 -8.534199 -0.000001 -0.000000 -0.000000 3.439075 7.229311 -33.575496 0.025188 -3.341599 -6.427191 0.076529 1.025823 -8.532770 0.000000 0.000000 0.000000 -0.281687 12.217691 -6.281383 -15.051934 79.594257 61.932788 -0.000075 76.944185 0.000073 16.664560 19.933074 -0.051458 0.921002 -3.463363 29.776104 0.734927 -3.116240 26.534260 0.236125 -1.800142 14.945033 0.000002 0.000002 -0.000001 1.610297 -18.109272 5.791958 4.637202 -8.634128 -0.225402 0.125396 -16.757468 -3.767205 -0.000005 -0.000002 0.000000 0.877025 -3.385458 29.039663 0.707337 -3.060404 26.021962 0.158699 -1.479958 12.239583 0.000003 -0.000002 -0.000003 1.442822 -4.245457 37.526606 0.802190 -3.247247 27.746078 0.244404 -1.830836 15.206257 0.000000 -0.000002 -0.000003 2.859925 -5.622920 53.889837 0.667012 -2.976563 25.256573 0.161559 -1.493063 12.349809 0.000001 0.000002 0.000000 -44.588848 -0.511748 2.853118 41.535091 3.748105 -2.654075 15.103807 -2.358687 -25.746630 -0.294407 -0.000002 0.000011 -0.000000 -0.000000 0.000000 -12.558127 -4.738457 6.530522 41.839341 1.504100 -2.029927 -23.272118 3.303430 -12.598650 -4.176255 0.000000 -0.000000 -0.000000 0.000000 0.000000 
-0.441481 187.501282 5.299061 -4.829350 -2.781513 6.254340 12.249467 0.901244 -1.527104 7.870363 0.043182 -0.683830 7.870847 0.059770 -0.677068 -6.157239 2.556354 -8.351042 -17.824794 -0.243695 8.293147 -0.000000 0.000000 -0.000000 -0.000000 0.000000 -0.000000 -0.000000 0.000000 -0.000000 -5.868524 12.954089 -2.340538 31.656434 -0.010277 -25.966585 0.000043 -80.552068 0.000038 27.158111 -12.628315 -11.479075 0.495043 2.568111 -21.818040 0.137355 1.371202 -11.440294 0.098337 1.161959 -9.675718 -0.000000 -0.000000 -0.000001 0.762397 12.501079 -4.685841 3.939034 7.948698 0.746807 1.374072 26.415419 4.686968 0.000002 -0.000001 0.000000 0.477857 2.524814 -21.431305 0.099103 1.166454 -9.713535 0.097498 1.156830 -9.632538 -0.000000 0.000001 -0.000003 0.773433 3.175596 -27.370101 0.140628 1.387219 -11.575763 0.094301 1.137940 -9.473895 -0.000001 -0.000001 0.000002 4.120479 7.510057 -38.923448 0.039209 -3.226294 -7.389027 0.082954 1.067837 -8.885062 -0.000001 0.000000 0.000001 -0.283636 11.773000 -6.447572 -16.227923 80.421017 63.896071 0.000000 76.328723 -0.000003 16.591884 18.193225 0.563775 1.198192 -3.907184 34.086114 0.882628 -3.395547 29.134708 0.268050 -1.915648 15.929470 0.000001 -0.000004 0.000000 2.226812 -18.039459 6.653721 4.637199 -8.634127 -0.225399 0.125395 -16.757464 -3.767205 -0.000002 -0.000001 -0.000003 1.223608 -3.944423 34.457601 0.847980 -3.332688 28.543921 0.178549 -1.568692 12.986281 0.000002 0.000000 -0.000001 1.768421 -4.637473 41.729147 0.934905 -3.487467 30.005106 0.270082 -1.922786 15.990422 -0.000000 0.000002 0.000003 3.372953 -5.961656 58.969859 0.746880 -3.140015 26.753235 0.169748 -1.530013 12.660574 0.000002 0.000001 0.000000 -38.874028 3.393645 0.228991 31.517310 2.731345 -4.314663 20.891163 -2.977037 -21.571194 -0.562323 -0.001786 0.381783 0.000000 -0.000000 -0.000002 -12.432092 -5.075225 5.926061 44.256914 1.251595 -1.553374 -20.461162 2.937411 -13.177224 -9.879437 0.000000 0.000000 -0.000000 0.000000 0.000000 
-0.570024 187.658295 10.479097 -5.086593 -2.626711 6.332004 12.412527 1.007251 -1.807762 7.717631 0.067229 -0.865377 7.718810 0.081048 -0.855775 -6.572847 2.418560 -7.738797 -16.529673 -0.188502 7.713843 0.000000 -0.000000 -0.000000 0.000000 -0.000000 -0.000000 0.000000 -0.000000 -0.000000 -5.574452 13.623197 -0.511375 29.992863 -0.347229 -22.443460 0.000040 -82.170263 0.000007 30.348136 -14.235140 -12.366495 0.646444 2.917641 -24.981378 0.182303 1.577003 -13.187119 0.122432 1.295250 -10.798515 0.000001 0.000001 0.000001 0.885117 12.636346 -5.198767 3.939035 7.948698 0.746810 1.374074 26.415419 4.686972 0.000002 -0.000001 -0.000000 0.651671 2.928792 -25.083711 0.135834 1.363661 -11.376527 0.118444 1.274105 -10.620100 -0.000000 0.000000 -0.000002 0.973151 3.534160 -30.781976 0.185773 1.591826 -13.313336 0.114564 1.253384 -10.445419 -0.000001 -0.000001 0.000002 4.713504 7.699749 -43.416241 0.064637 -3.048631 -8.874777 0.092949 1.129888 -9.405884 0.000000 -0.000001 0.000000 -0.035547 10.724583 -5.938485 -24.556584 80.880177 73.059194 -0.000058 73.998857 0.000048 20.816427 16.518404 -1.129874 1.366519 -4.144515 36.483800 0.997075 -3.592814 31.012163 0.295976 -2.010873 16.744607 0.000002 0.000002 -0.000001 2.400838 -18.007625 6.913421 4.637202 -8.634130 -0.225399 0.125394 -16.757466 -3.767206 -0.000002 0.000002 -0.000001 1.404816 -4.195660 37.010367 0.963078 -3.535720 30.465171 0.198026 -1.650833 13.679490 0.000001 0.000002 -0.000003 2.001537 -4.885455 44.537140 1.046553 -3.673680 31.792758 0.293178 -2.001519 16.664413 -0.000001 0.000004 -0.000000 3.782871 -6.188507 62.841968 0.824818 -3.289831 28.142898 0.177727 -1.565115 12.956176 -0.000001 -0.000001 -0.000000 -34.391246 7.289986 -1.811161 26.817841 -0.362817 -4.694494 20.383571 -1.776209 -13.540202 -5.256539 -0.205239 4.027982 -0.000000 -0.000000 0.000000 -12.912792 -5.835237 5.186117 47.627903 2.897312 -0.736645 -15.911108 2.778578 -14.929752 -16.392545 -0.000002 0.000002 -0.000000 0.000000 0.000000 
-0.890518 187.041656 14.969545 -5.475780 -2.529373 6.050556 12.801757 1.277492 -2.323305 7.385971 0.115765 -1.173181 7.388351 0.123967 -1.159181 -7.011226 2.054448 -6.281825 -15.084862 -0.147699 6.888435 -0.000000 -0.000000 0.000000 -0.000000 -0.000000 0.000000 -0.000000 -0.000000 0.000000 -5.060368 14.127009 2.052811 25.453014 -3.030105 -18.365636 0.000084 -83.529314 0.000047 33.931731 -14.945859 -11.357369 0.762949 3.155286 -27.180277 0.237080 1.794688 -15.048652 0.148480 1.424988 -11.895723 -0.000000 0.000002 0.000002 0.885835 12.641580 -5.207794 3.939035 7.948698 0.746809 1.374077 26.415420 4.686970 0.000001 0.000003 -0.000003 0.774754 3.178115 -27.393727 0.180552 1.569561 -13.123607 0.141318 1.390683 -11.605133 -0.000000 -0.000002 0.000002 1.139761 3.799393 -33.386784 0.245133 1.824378 -15.303715 0.138544 1.377007 -11.489536 -0.000000 -0.000001 -0.000003 5.205859 7.820907 -47.061677 0.104244 -2.820330 -10.792696 0.108051 1.217507 -10.143077 -0.000001 -0.000001 0.000000 0.388391 8.978294 -4.554046 -34.713760 79.344696 84.257323 -0.000039 70.077440 0.000049 27.083701 15.538668 -3.339841 1.398154 -4.186827 36.919157 1.067541 -3.707258 32.118753 0.321814 -2.094765 17.465852 0.000000 0.000000 -0.000001 2.397778 -18.005181 6.913790 4.637203 -8.634129 -0.225402 0.125391 -16.757463 -3.767207 -0.000003 -0.000000 -0.000002 1.385198 -4.169578 36.741329 1.036597 -3.657571 31.636934 0.219580 -1.736977 14.408842 -0.000000 0.000002 0.000002 2.109630 -4.992532 45.792576 1.134743 -3.811990 33.143797 0.316986 -2.079360 17.333167 -0.000000 -0.000002 0.000001 4.040144 -6.313087 65.204319 0.910726 -3.445342 29.605356 0.189254 -1.614380 13.371600 0.000002 0.000002 -0.000001 -32.043863 11.319644 -2.755907 27.215669 -5.133737 -4.029202 14.774555 -0.383123 -3.416920 -6.554129 0.000003 0.000004 -0.000000 -0.000000 -0.000001 -15.805847 -5.539870 3.983711 54.510661 5.392837 0.244958 -11.361402 1.857271 -10.929910 -25.154477 0.000003 -0.000008 -0.000000 0.000000 -0.000000 
